# xmcd
#
# Track frame offsets: 
#        150
#        20407
#        31000
#        53957
#        70015
#        86285
#        101762
#        119877
#        135280
#        150910
#        170425
#        185267
#
# Disc length: 2647 seconds
#
# Revision: 2
# Processed by: cddbd v1.4PL0 Copyright (c) Steve Scherf et al.
# Submitted via: ExactAudioCopy v0.90b4
#
DISCID=8d0a550c
DTITLE=Debbie Davies - Tales From the Austin Motel
DYEAR=1999
DGENRE=Blues
TTITLE0=Just Stepped In The Blues
TTITLE1=I Want To Be Loved
TTITLE2=Bald Headed Baby
TTITLE3=Watch Out What You Do
TTITLE4=I Just Want To Make Love To You
TTITLE5=As The Years Go Passing By
TTITLE6=I'm A Woman
TTITLE7=Half Caf-Decaf
TTITLE8=Behind Your Eyes
TTITLE9=When You Were Gone
TTITLE10=Percolatin'
TTITLE11=Walking By Myself
EXTD=
EXTT0=
EXTT1=
EXTT2=
EXTT3=
EXTT4=
EXTT5=
EXTT6=
EXTT7=
EXTT8=
EXTT9=
EXTT10=
EXTT11=
PLAYORDER=
